<?xml version="1.0" standalone="no"?>
<!DOCTYPE svg PUBLIC "-//W3C//DTD SVG 20010904//EN"
 "http://www.w3.org/TR/2001/REC-SVG-20010904/DTD/svg10.dtd">
<svg version="1.0" xmlns="http://www.w3.org/2000/svg"
 width="427.000000pt" height="427.000000pt" viewBox="0 0 427.000000 427.000000"
 preserveAspectRatio="xMidYMid meet">
<metadata>
Created by potrace 1.14, written by Peter Selinger 2001-2017
</metadata>
<g transform="translate(0.000000,427.000000) scale(0.100000,-0.100000)"
fill="#000000" stroke="none">
<path d="M2327 4063 c-2 -5 -7 -20 -11 -34 -7 -31 -36 -48 -36 -21 0 13 -2 14
-9 4 -7 -11 -9 -10 -15 3 -3 9 -10 14 -15 11 -5 -3 -20 3 -34 14 -32 25 -37
25 -37 -1 0 -15 -5 -19 -15 -15 -10 4 -17 -3 -20 -22 -4 -15 -10 -45 -15 -67
-6 -22 -11 -58 -12 -80 -3 -43 -19 -50 -30 -13 -3 13 -6 20 -7 16 -1 -4 -12
-3 -26 2 -22 9 -25 7 -25 -15 0 -14 -5 -25 -11 -25 -8 0 -7 -6 2 -17 12 -15
12 -16 -8 -11 -15 4 -23 1 -26 -11 -3 -11 -5 -9 -6 6 0 12 -5 24 -10 28 -6 3
-8 -9 -4 -29 3 -19 2 -43 -2 -53 -6 -15 -9 -14 -20 12 -7 16 -10 36 -7 43 3
10 0 13 -9 10 -8 -3 -14 -14 -14 -26 0 -11 -4 -24 -8 -28 -12 -12 -8 -24 8
-24 8 0 15 -7 15 -16 0 -8 -4 -13 -9 -10 -12 8 -21 -18 -21 -62 0 -28 -3 -33
-10 -22 -5 8 -10 32 -10 53 0 22 -4 36 -10 32 -5 -3 -14 11 -19 32 -6 21 -18
49 -28 63 -10 13 -23 36 -29 50 -10 22 -12 18 -15 -38 -2 -34 -1 -62 2 -62 8
0 5 -158 -4 -166 -4 -4 -7 -15 -7 -24 0 -10 -8 -16 -24 -15 -27 0 -49 15 -23
15 22 0 21 13 -3 35 -10 9 -24 33 -31 52 -9 28 -13 32 -25 22 -8 -6 -14 -25
-14 -41 0 -16 -4 -27 -9 -23 -5 3 -12 1 -16 -5 -12 -19 -25 -10 -26 18 -1 22
-2 23 -6 5 -5 -24 -33 -53 -33 -34 0 6 5 11 10 11 7 0 7 6 0 20 -7 14 -7 20 0
20 20 0 10 20 -17 34 -20 10 -32 11 -44 3 -13 -8 -21 -6 -34 6 -23 23 -26 21
-15 -9 17 -44 13 -62 -15 -59 -23 3 -25 0 -25 -34 0 -36 -1 -37 -30 -33 -34 5
-38 -3 -14 -29 16 -18 15 -18 -25 -2 -39 15 -43 15 -59 -1 -16 -16 -16 -18 3
-33 19 -15 19 -15 -10 -8 -16 4 -49 9 -73 12 -28 3 -46 11 -49 22 -14 38 -25
42 -45 15 -18 -22 -19 -27 -5 -42 13 -14 13 -19 2 -29 -11 -10 -16 -10 -23 3
-8 14 -10 14 -21 0 -7 -8 -19 -12 -27 -9 -11 4 -12 9 -3 19 9 11 8 14 -3 14
-27 0 -83 -45 -100 -80 l-16 -35 -11 25 -10 25 0 -26 c-1 -23 -4 -26 -27 -21
-14 2 -28 10 -30 16 -3 7 -22 11 -46 10 -46 -2 -74 16 -55 35 8 8 7 11 -6 11
-19 0 -37 -29 -37 -61 0 -12 -8 -46 -17 -76 -13 -37 -23 -53 -36 -53 -16 0
-16 2 -2 30 10 18 11 30 5 30 -26 0 -53 -105 -52 -202 0 -27 -4 -48 -9 -48 -5
0 -9 7 -9 15 0 8 -5 15 -10 15 -6 0 -15 12 -20 26 -6 14 -14 22 -20 19 -9 -6
-7 -26 7 -77 3 -13 0 -16 -11 -12 -31 12 -29 -26 3 -72 40 -55 26 -57 -28 -3
-23 23 -44 39 -48 36 -9 -10 22 -51 88 -117 56 -56 68 -78 25 -45 -11 8 -23
15 -27 15 -9 0 0 -41 13 -56 12 -16 -15 -25 -51 -18 -16 3 -31 2 -35 -4 -3 -5
2 -9 12 -8 32 2 18 -28 -18 -39 -19 -5 -41 -14 -47 -18 -8 -5 -13 -3 -13 3 0
8 -7 9 -17 5 -10 -4 -27 -8 -38 -10 -23 -2 -47 -42 -39 -66 3 -11 -5 -25 -21
-37 l-25 -20 22 -27 21 -27 -21 6 c-24 8 -29 -3 -9 -23 10 -10 8 -11 -6 -5
-12 4 -25 0 -37 -14 -18 -19 -18 -20 3 -43 l21 -22 -22 5 c-23 6 -31 -6 -9
-16 6 -3 -10 -3 -38 0 -44 5 -48 4 -32 -9 18 -15 24 -33 8 -22 -6 3 -9 -4 -8
-15 1 -11 7 -20 13 -20 6 0 14 -9 17 -20 3 -11 13 -20 22 -20 12 0 16 6 12 20
-7 26 3 31 39 21 19 -5 28 -14 26 -24 -1 -8 5 -18 15 -20 17 -4 17 -5 1 -6
-10 0 -18 -6 -18 -11 0 -6 -10 -15 -23 -20 -21 -8 -21 -9 6 -11 15 -1 33 -2
40 -3 6 -1 15 -5 19 -10 4 -6 13 -4 22 4 9 7 19 10 23 7 3 -4 -2 -9 -11 -13
-13 -5 -14 -9 -5 -20 13 -16 -2 -64 -21 -64 -15 0 -48 -71 -48 -104 0 -15 -3
-31 -8 -35 -5 -3 -9 -37 -9 -76 0 -69 0 -70 -27 -73 -16 -2 -28 -9 -28 -18 0
-8 -7 -14 -15 -14 -8 0 -15 -6 -15 -13 0 -8 -16 -22 -35 -33 -44 -23 -44 -34
-2 -35 17 0 26 -3 20 -6 -25 -10 -12 -23 25 -24 28 -2 31 -3 11 -6 -22 -3 -28
-10 -31 -38 -4 -39 9 -50 65 -54 22 -2 22 -2 -3 -16 -14 -8 -20 -14 -15 -15 6
0 15 -10 20 -22 6 -13 18 -22 27 -22 10 1 14 -4 11 -13 -4 -11 3 -12 34 -7 35
5 40 3 51 -21 7 -14 10 -30 7 -35 -3 -4 2 -10 10 -14 8 -3 15 -10 15 -15 0 -6
-6 -8 -14 -5 -7 3 -16 -2 -19 -10 -4 -10 -1 -16 9 -16 9 0 12 -5 8 -11 -3 -6
0 -15 7 -20 10 -6 11 -9 2 -9 -20 0 -15 -20 5 -20 16 -1 16 -1 0 -14 -10 -7
-15 -16 -11 -20 4 -4 -3 -9 -15 -13 -12 -3 -22 -10 -22 -15 0 -5 9 -7 20 -3
31 10 15 -19 -18 -33 -27 -11 -27 -11 5 -6 41 7 58 -2 42 -22 -6 -8 -7 -14 -2
-14 5 0 10 -10 10 -22 4 -49 14 -70 30 -64 11 5 14 2 9 -10 -7 -18 -11 -18 99
10 75 19 75 19 75 1 0 -8 5 -15 10 -15 6 0 9 -3 9 -7 -3 -21 3 -31 21 -36 11
-3 24 -16 29 -29 5 -12 28 -49 51 -82 40 -57 41 -59 23 -78 -18 -20 -17 -20
12 -14 27 5 33 1 60 -35 17 -23 44 -50 60 -62 23 -16 27 -17 16 -4 -11 14 -11
21 -3 29 18 18 14 33 -3 18 -13 -10 -19 -10 -35 5 -11 10 -20 24 -20 30 0 7
-7 18 -15 25 -22 18 -10 28 31 28 24 0 32 -3 24 -8 -9 -6 -2 -11 22 -15 35 -7
58 -38 37 -51 -16 -10 -9 -24 12 -24 34 0 59 -19 59 -45 0 -14 -5 -25 -11 -25
-20 0 3 -20 24 -21 l22 0 -22 -9 c-13 -5 -23 -14 -23 -20 0 -13 13 -13 27 1 9
9 10 6 6 -12 l-6 -24 21 24 c16 18 28 22 47 17 14 -4 23 -11 20 -16 -9 -14 19
-12 34 3 11 10 12 7 6 -13 l-8 -25 23 20 23 20 -7 -40 c-7 -38 -7 -39 9 -18 8
12 22 20 29 17 7 -3 16 2 20 11 3 9 11 13 16 10 8 -5 8 -11 0 -20 -8 -10 -8
-15 1 -20 6 -4 15 -2 19 5 6 9 12 9 29 -1 24 -16 29 -31 6 -23 -12 5 -12 1 1
-26 33 -66 -8 -109 -80 -84 -45 16 -46 16 -46 6 0 -21 298 -145 390 -162 25
-5 79 -15 120 -23 41 -8 78 -13 83 -10 4 2 10 -2 13 -10 4 -12 30 -14 147 -11
78 2 165 8 192 14 52 10 165 8 184 -5 7 -4 9 -15 6 -25 -4 -13 1 -22 15 -30
13 -7 20 -7 20 0 0 5 7 10 15 10 8 0 15 -7 15 -15 0 -8 5 -15 10 -15 6 0 10 6
10 14 0 7 10 16 21 19 17 4 19 3 10 -6 -19 -19 -12 -27 15 -17 33 13 37 13 31
-4 -13 -33 30 -1 62 45 41 60 83 86 101 64 10 -12 14 -12 26 0 8 7 14 18 14
24 0 6 15 11 33 11 18 0 38 5 44 11 9 9 19 9 40 1 32 -13 139 -19 150 -9 3 4
17 7 29 7 13 0 25 4 28 9 3 5 29 14 57 21 28 7 53 18 55 25 3 7 16 16 30 19
13 4 33 15 44 26 11 11 29 20 41 20 41 0 163 109 250 223 59 76 79 92 79 62 0
-23 16 -18 28 10 8 17 16 23 28 18 11 -4 15 -2 11 4 -9 15 17 35 37 27 12 -5
16 0 16 17 1 22 2 22 11 6 8 -14 14 -16 24 -7 11 9 16 6 21 -15 8 -33 24 -28
49 18 20 36 15 61 -7 39 -19 -19 -33 -14 -16 6 8 9 18 30 22 45 4 18 12 27 20
24 8 -3 17 12 26 42 7 25 17 51 22 58 16 20 17 81 2 87 -10 4 -3 21 26 62 22
32 40 63 40 69 0 7 7 18 15 25 8 7 15 17 15 23 0 6 -11 0 -25 -13 -34 -32 -40
-21 -10 20 35 48 22 51 -21 4 l-36 -39 20 35 c40 72 52 96 67 134 8 22 14 40
12 42 -1 1 -20 -19 -42 -46 -50 -61 -73 -65 -70 -12 3 52 3 52 23 52 14 0 17
10 18 57 1 32 7 59 13 61 7 2 8 14 5 29 -5 18 -2 30 10 38 17 13 12 50 -5 39
-11 -7 -11 7 -1 24 5 7 17 10 28 7 16 -6 15 -4 -4 14 l-23 20 24 7 c24 5 24 7
9 25 -12 13 -18 15 -23 7 -15 -23 -19 -1 -12 53 5 30 13 54 18 55 27 2 127 59
146 82 19 25 20 34 14 132 -4 58 -13 123 -21 145 -18 52 -18 80 1 99 22 21 18
36 -9 36 -13 0 -27 7 -30 16 -4 12 -2 15 9 10 20 -7 19 14 -1 43 -14 19 -14
25 -3 32 10 6 19 2 31 -11 22 -27 28 -25 28 8 0 34 -27 91 -46 99 -22 8 -5 25
18 17 14 -4 18 -2 14 5 -4 6 -15 11 -24 11 -10 0 -13 3 -6 8 6 4 13 15 17 25
3 9 13 17 22 17 8 0 15 5 15 10 0 6 10 10 23 10 15 0 18 3 9 8 -7 5 -10 16 -7
24 8 20 40 29 54 15 8 -8 11 -5 11 11 0 13 -10 27 -27 36 -52 26 -122 96 -116
113 5 13 10 11 29 -13 13 -15 26 -25 30 -21 11 10 -76 97 -97 97 -9 0 -22 7
-29 15 -7 8 -27 17 -45 21 -57 10 -51 31 11 39 62 8 63 19 2 30 -35 6 -39 8
-23 15 11 5 14 9 8 9 -7 1 -13 8 -13 17 0 17 -9 17 -100 -2 -56 -12 -22 19 40
36 27 7 50 18 50 23 0 11 -48 5 -115 -16 -27 -8 -61 -18 -75 -22 l-25 -7 25
22 c16 14 19 20 8 16 -10 -3 -20 -1 -24 5 -3 5 -14 7 -25 4 -14 -5 -19 -2 -19
13 0 11 7 25 15 32 8 7 15 22 14 34 0 21 0 21 -9 -1 -11 -28 -16 -29 -29 -4
-11 19 3 79 19 91 4 3 11 24 15 47 6 41 6 42 -32 60 -21 10 -39 27 -42 38 -5
27 -21 36 -43 24 -12 -6 -18 -6 -18 1 0 5 5 10 11 10 5 0 7 5 4 10 -4 6 -16 8
-28 4 -22 -6 -22 -6 -2 11 14 11 16 18 8 21 -7 3 -13 15 -13 27 0 12 -4 18 -8
12 -4 -5 -18 -11 -32 -13 -19 -2 -22 0 -12 10 19 19 14 32 -5 17 -10 -8 -5 3
11 24 26 36 30 65 4 39 -16 -16 -29 -15 -22 2 3 7 -3 17 -13 20 -10 4 -19 2
-21 -3 -2 -6 -15 -11 -28 -11 -29 0 -32 -23 -5 -36 19 -9 19 -10 -4 -38 l-23
-28 -30 22 c-17 13 -28 28 -25 36 3 8 0 14 -6 14 -6 0 -11 -9 -11 -20 0 -11
-4 -20 -10 -20 -5 0 -10 -7 -10 -15 0 -8 -6 -12 -14 -9 -11 4 -13 0 -9 -15 3
-12 1 -21 -6 -21 -6 0 -11 7 -11 15 0 8 -4 15 -9 15 -5 0 -7 -10 -4 -22 4 -19
3 -20 -6 -7 -6 9 -25 22 -43 30 -37 15 -80 57 -72 70 3 5 0 9 -5 9 -6 0 -11
-6 -12 -12 0 -7 -5 -2 -11 12 -6 14 -10 36 -10 50 1 14 -1 19 -4 13 -8 -18
-24 -16 -24 3 0 8 -5 12 -11 8 -6 -3 -9 -15 -6 -25 6 -22 -3 -25 -21 -7 -9 9
-12 7 -12 -9 0 -34 -11 -53 -30 -53 -27 0 -32 29 -20 125 9 73 8 91 -5 117 -8
17 -15 46 -15 65 0 18 -4 33 -10 33 -5 0 -10 -6 -10 -14 0 -21 -27 -40 -34
-24 -4 9 -8 10 -11 2 -3 -6 -12 -19 -19 -29 -12 -16 -13 -15 -9 12 4 27 2 31
-29 37 -28 6 -37 3 -55 -19 -27 -31 -37 -32 -27 -3 6 19 4 21 -7 12 -8 -6 -28
-10 -46 -9 -24 2 -30 -1 -26 -11 3 -10 0 -12 -10 -8 -10 3 -18 -2 -22 -16 -5
-17 -13 -21 -31 -17 -13 2 -24 0 -24 -4 0 -17 -59 -9 -69 9 -6 9 -11 11 -11 5
0 -16 -42 -11 -48 6 -3 8 -8 6 -18 -6 -12 -17 -13 -16 -14 12 0 23 -3 27 -10
15 -7 -12 -10 -8 -10 15 l-1 30 -14 -25 -13 -25 -7 27 c-4 16 -5 35 -1 43 6
15 1 21 -7 8z m790 -415 c-3 -8 -6 -5 -6 6 -1 11 2 17 5 13 3 -3 4 -12 1 -19z
m223 2 c0 -5 -5 -10 -11 -10 -5 0 -7 5 -4 10 3 6 8 10 11 10 2 0 4 -4 4 -10z
m-955 -278 c33 -7 19 -10 -88 -20 -434 -43 -786 -244 -1007 -574 -33 -49 -60
-96 -60 -104 0 -14 46 -94 55 -94 2 0 23 37 47 83 55 105 139 217 224 296 l66
62 -23 25 c-30 32 -16 44 16 14 21 -20 29 -22 43 -12 204 144 483 244 716 258
l81 4 -64 -15 c-170 -39 -340 -99 -482 -171 -88 -44 -202 -115 -195 -121 3 -4
180 -52 194 -53 1 0 28 24 60 53 31 29 83 72 114 96 49 36 57 48 60 79 l3 37
70 5 c39 3 114 4 168 2 l97 -3 0 -175 0 -174 160 0 160 0 0 -155 0 -155 -160
0 -160 0 0 -451 0 -451 32 -59 c18 -33 35 -59 38 -58 5 0 237 317 253 344 5
10 -8 18 -50 30 -72 21 -103 37 -148 77 -41 35 -69 86 -78 138 -14 76 41 239
112 338 l31 42 340 0 339 0 41 -69 c95 -160 116 -310 57 -399 -52 -79 -140
-121 -334 -158 -40 -8 -53 -52 -53 -174 l0 -110 101 0 100 0 -3 -52 -3 -53
-222 -3 -221 -2 -7 -73 c-3 -39 -12 -133 -18 -207 l-12 -135 -462 -3 -463 -2
0 25 c0 25 -19 40 -41 33 -16 -5 96 -142 163 -199 101 -87 157 -118 233 -129
159 -22 366 -9 540 37 141 37 225 73 375 161 14 8 8 -2 -15 -22 -85 -76 -271
-153 -473 -196 -140 -30 -402 -38 -548 -16 -435 64 -762 296 -954 676 -244
485 -212 1016 86 1413 77 102 226 246 321 310 145 96 319 170 479 201 74 15
303 20 369 8z m794 -2057 c55 -28 66 -119 18 -163 -76 -71 -199 5 -167 104 22
65 87 92 149 59z m-305 -923 c3 -5 -9 -9 -26 -10 -24 -1 -28 2 -18 8 19 12 37
13 44 2z"/>
<path d="M2100 3095 c-48 -39 -150 -138 -150 -146 0 -8 179 -43 186 -37 2 3 3
52 2 108 l-3 103 -35 -28z"/>
<path d="M2250 2940 l0 -170 -160 0 -160 0 0 -55 0 -55 160 0 160 0 0 -412 0
-413 32 53 31 54 28 -49 29 -48 0 408 0 407 160 0 160 0 0 55 0 55 -160 0
-160 0 0 170 0 170 -60 0 -60 0 0 -170z"/>
<path d="M1602 2913 c-80 -79 -178 -225 -223 -332 l-31 -74 29 -24 c28 -24
128 -75 169 -87 19 -6 24 1 44 56 50 138 154 314 245 416 l46 51 -28 6 c-30 7
-150 43 -170 51 -6 3 -43 -25 -81 -63z"/>
<path d="M1895 2890 c-18 -20 -17 -20 113 -20 73 0 132 4 132 8 0 8 -159 32
-208 32 -10 0 -27 -9 -37 -20z"/>
<path d="M1792 2745 c-58 -87 -164 -327 -150 -340 2 -3 96 27 207 65 111 39
208 70 216 70 7 0 22 -15 33 -32 l21 -33 -24 -31 c-29 -38 -87 -135 -83 -139
2 -2 31 -7 66 -12 l62 -10 0 139 0 138 -155 0 -154 0 -3 118 -3 117 -33 -50z"/>
<path d="M1182 2581 c-56 -124 -83 -249 -89 -407 -9 -229 33 -423 142 -650 60
-125 86 -152 209 -223 66 -37 235 -105 243 -97 1 1 -14 34 -34 72 -20 38 -49
101 -64 139 l-27 70 -89 5 -88 5 4 75 c10 154 17 137 -78 176 -47 19 -98 46
-114 62 -75 71 -90 169 -46 287 15 39 34 112 44 164 9 51 27 129 41 173 14 45
23 88 20 97 -3 9 -13 40 -24 70 l-18 53 -32 -71z"/>
<path d="M1302 2349 c-12 -51 -21 -94 -19 -96 2 -2 30 12 62 32 33 19 62 35
66 35 3 0 23 7 44 16 l37 15 -70 34 c-38 18 -73 38 -76 44 -15 23 -23 8 -44
-80z"/>
<path d="M2675 2328 c-17 -39 -29 -88 -32 -128 -4 -57 -2 -70 19 -100 90 -133
471 -161 636 -46 87 60 101 156 40 267 l-35 64 -300 3 -300 2 -28 -62z"/>
<path d="M1725 2313 c-99 -36 -181 -66 -182 -67 -3 -3 -43 -563 -43 -603 l0
-33 150 0 150 0 0 36 c0 19 -5 90 -11 156 -6 65 -9 122 -6 124 3 3 26 -24 53
-60 26 -36 49 -64 52 -62 2 3 -4 83 -14 180 -20 196 -14 260 29 348 13 26 19
47 13 47 -6 -1 -92 -31 -191 -66z"/>
<path d="M1979 2229 c-13 -51 -8 -192 16 -374 28 -221 36 -259 60 -288 l22
-29 32 51 31 51 0 310 0 310 -44 0 c-24 0 -57 3 -74 6 -29 6 -31 4 -43 -37z"/>
<path d="M1355 2162 c-95 -72 -138 -173 -106 -250 13 -31 67 -66 117 -75 l32
-6 5 57 c4 31 9 104 12 162 3 58 8 115 11 128 6 32 -13 28 -71 -16z"/>
<path d="M2836 1793 c-3 -54 -9 -119 -12 -145 l-7 -48 67 0 66 0 0 104 c0 145
-18 186 -83 186 -23 0 -24 -3 -31 -97z"/>
<path d="M2211 1558 c-55 -96 -106 -182 -113 -191 -12 -16 -21 -7 -87 78 -41
53 -76 94 -78 91 -3 -2 1 -83 8 -180 l12 -176 358 0 358 0 5 53 c8 73 26 311
23 313 -1 1 -36 -42 -77 -96 -41 -55 -77 -99 -80 -99 -3 -1 -17 20 -32 47 -14
26 -64 111 -111 190 l-84 144 -102 -174z"/>
<path d="M1635 1463 c11 -48 65 -176 96 -229 25 -44 34 -52 66 -57 20 -4 38
-5 40 -3 2 2 -2 74 -8 160 l-13 156 -94 0 -94 0 7 -27z"/>
<path d="M1361 1304 c50 -71 194 -219 269 -275 114 -86 316 -179 440 -204 32
-6 30 -4 -24 29 -91 56 -193 143 -259 223 -44 52 -68 73 -91 77 -87 17 -295
124 -320 165 -4 6 -17 16 -28 22 -17 9 -14 2 13 -37z"/>
<path d="M3075 1285 c-48 -47 -25 -125 40 -141 50 -12 104 48 91 101 -16 64
-86 86 -131 40z m75 -5 c10 -6 15 -27 16 -60 1 -51 -10 -66 -21 -30 -3 11 -13
20 -21 20 -8 0 -14 -9 -14 -20 0 -11 -4 -20 -10 -20 -11 0 -14 103 -3 113 9
10 35 8 53 -3z"/>
<path d="M3110 1250 c0 -15 5 -20 18 -18 9 2 17 10 17 18 0 8 -8 16 -17 18
-13 2 -18 -3 -18 -18z"/>
</g>
</svg>
